Simulation
nRows=40
nColumns=15
endheader
time  TH_x TH_y TH_z SC_y  SC_z  SC_x  AC_y  AC_z  AC_x  GH_y  GH_z  GH_yy  EL_x  PS_y
0.0  0.000000  0.000000  0.000000  -26.791495366504996  -1.0997081476416892  1.2460331238467406  51.12236451780331  6.4674739805084585  -2.9157904518629554  19.67751314392108  13.071195298437118  24.850114318385238  27.0773220646463  0.000000
0.039  0.000000  0.000000  0.000000  -26.729830740209817  -0.7542880112083798  1.3869075306923029  50.6847671386432  6.668784451108552  -3.0305287571088555  18.654501682862463  13.38386619044116  25.72008602866032  26.689984221014523  0.000000
0.078  0.000000  0.000000  0.000000  -26.584358349754677  -0.6434184118037386  1.5204467559223553  50.408644436865224  6.536088283016531  -3.210865827677996  18.049006870100854  13.559379442120072  26.168761744321138  26.24068447341162  0.000000
0.11699999999999999  0.000000  0.000000  0.000000  -26.434625949107694  -0.6601925659808189  1.6716156736319125  50.341064918085955  6.293738375779048  -3.361038845525796  17.779565355281058  13.643742020463934  26.263260072113212  25.884841667419995  0.000000
0.156  0.000000  0.000000  0.000000  -26.266557584722168  -0.7571408328728995  1.7843410305816587  50.40370450834701  6.080415341708588  -3.4206485714119563  18.021784740277184  13.736967916141792  25.691690131356783  25.576172669621347  0.000000
0.195  0.000000  0.000000  0.000000  -26.129623682875927  -0.8889253184116401  1.850942577151745  50.61433330226055  5.963225186866302  -3.4015529221196563  18.992467055997356  13.963735189439443  24.240444911980696  25.315480041108607  0.000000
0.23399999999999999  0.000000  0.000000  0.000000  -26.032680193048648  -1.00649464397754  1.8695659344154725  50.86724400419768  5.953574673248879  -3.297957643912241  20.82195711848472  14.394818832917482  21.761406824131452  25.112245642231613  0.000000
0.273  0.000000  0.000000  0.000000  -26.003012831430336  -1.0905436674473166  1.8607004928386492  51.15080899253672  6.0445309360670425  -3.152175573936774  23.559473833038243  15.096772986009004  18.21695612441202  24.95584230228099  0.000000
0.312  0.000000  0.000000  0.000000  -26.03731672378078  -1.1320092907166612  1.8590458530757612  51.42719567503674  6.213503742036735  -2.982947881414178  26.997866461972702  16.094565521296555  13.807560668865369  24.85897564409687  0.000000
0.351  0.000000  0.000000  0.000000  -26.119139152693155  -1.1334562186784396  1.8948334198424315  51.713590701957  6.426952150733767  -2.808225486381593  30.785447231485623  17.403500898597837  8.870026400466337  24.80587814744353  0.000000
0.39  0.000000  0.000000  0.000000  -26.214289110918447  -1.1011260619027  1.9862467883030603  52.02471245364974  6.6669318789794305  -2.6317193760429807  34.50072706857648  19.00530502543232  3.8307017614428704  24.805236270031525  0.000000
0.429  0.000000  0.000000  0.000000  -26.28978166024591  -1.0401513049182447  2.136994195196984  52.378143290559954  6.921248434536227  -2.4491927760569157  37.82296816172422  20.86015511844108  -0.9708835431627743  24.850710675414035  0.000000
0.46799999999999997  0.000000  0.000000  0.000000  -26.323326556403487  -0.9564502195560812  2.3376799905209844  52.77790593237837  7.194775772551349  -2.2594659608054988  40.60524155451372  22.9168538623811  -5.352108416713035  24.940052582247837  0.000000
0.507  0.000000  0.000000  0.000000  -26.299414030353038  -0.8477559967197091  2.575313744620099  53.21274434733509  7.490236509725649  -2.057570351322429  42.83741526893587  25.121948915919813  -9.261832731760325  25.052457141037106  0.000000
0.546  0.000000  0.000000  0.000000  -26.216424174869477  -0.7097122230256327  2.839918999674466  53.665681938793654  7.814031332811304  -1.848261850852075  44.60274393712719  27.42908917796759  -12.74833165446463  25.169026697188983  0.000000
0.585  0.000000  0.000000  0.000000  -26.08936974479187  -0.533670838221648  3.130884032083821  54.10973611524314  8.164716045389746  -1.6365527104192046  46.023860904871846  29.796155145087795  -15.910285565437395  25.268085763108274  0.000000
0.624  0.000000  0.000000  0.000000  -25.955798147580783  -0.3113974236983623  3.455546748413062  54.51784660505835  8.538983373497182  -1.4348145919328952  47.24768186464433  32.18993549386029  -18.885067109093505  25.33566330001662  0.000000
0.663  0.000000  0.000000  0.000000  -25.86325082989112  -0.03215770578006763  3.834576722359006  54.86695161133996  8.920014220588673  -1.2524965618048989  48.39548395664672  34.581979238425404  -21.789290072850665  25.360602055014173  0.000000
0.702  0.000000  0.000000  0.000000  -25.840725566588723  0.3091561084512514  4.292896014227977  55.15005223363904  9.28874327249835  -1.0985161766227998  49.53242652146534  36.95082306973329  -24.680675739357007  25.33509685746311  0.000000
0.741  0.000000  0.000000  0.000000  -25.881407057688097  0.7114970894841506  4.851670632523636  55.377119667799384  9.625870243725947  -0.972357588658292  50.642155773513686  39.2797277077534  -27.51609954969326  25.258847796459197  0.000000
0.78  0.000000  0.000000  0.000000  -25.950350581652128  1.1698590871595198  5.520207603109719  55.56884983401364  9.921081615514014  -0.8680922018577157  51.66582281325795  41.55468221253182  -30.19823591064765  25.139042756111273  0.000000
0.819  0.000000  0.000000  0.000000  -26.01295056453857  1.6750846844367213  6.2898942956552535  55.74235769033407  10.170659143463789  -0.7727203117457834  52.54001422821689  43.763385989360174  -32.62286084575951  24.987127642181143  0.000000
0.858  0.000000  0.000000  0.000000  -26.05532494700526  2.2150661185910545  7.133969164228353  55.90450114109641  10.377463440630533  -0.6729385912942055  53.23244813311623  45.89499046135357  -34.73265275036203  24.821552258832828  0.000000
0.897  0.000000  0.000000  0.000000  -26.087825083904367  2.7739583571058195  8.016118215048166  56.05413798173448  10.545769521255258  -0.5566397403587184  53.73829832523629  47.93833965528561  -36.515952290696085  24.66854133983879  0.000000
0.9359999999999999  0.000000  0.000000  0.000000  -26.131490973862956  3.3368041765797196  8.902401888841716  56.18842812815123  10.681904873085305  -0.41685754398429065  54.07343874216496  49.879990680366646  -37.998236779581795  24.556257291796147  0.000000
0.975  0.000000  0.000000  0.000000  -26.204940582281875  3.8920111939839637  9.769922156728441  56.30574489735763  10.79280947987261  -0.25160434906864104  54.25973777297281  51.70717493441232  -39.21651892206533  24.501795039559397  0.000000
1.014  0.000000  0.000000  0.000000  -26.3116575898313  4.434424989369424  10.610004199611627  56.40404041953072  10.88731804439115  -0.06478450934972327  54.320894421920094  53.41083608271526  -40.21484275151234  24.495194539749818  0.000000
1.053  0.000000  0.000000  0.000000  -26.44539382425575  4.963704412205074  11.427844076002621  56.480972536806874  10.973264205090668  0.13738707356408386  54.278963238303085  54.98503357345855  -41.03792948381149  24.510973853723716  0.000000
1.092  0.000000  0.000000  0.000000  -26.601563947560628  5.483479760673668  12.238552350956446  56.53417139417703  11.053770836527221  0.34745569746483623  54.16029547875334  56.426036741663935  -41.73518047575918  24.525283831643627  0.000000
1.131  0.000000  0.000000  0.000000  -26.783065668007332  5.9975819896695635  13.060992453802125  56.56168277567802  11.126567582192317  0.5589276362718849  53.99570042660005  57.72964442484186  -42.355358640985976  24.523647390669442  0.000000
1.17  0.000000  0.000000  0.000000  -26.99675641219294  6.508083851996173  13.910261097563993  56.56268184509783  11.18703725740232  0.7664939030284623  53.8165383486997  58.89260987459318  -42.94220449243717  24.500140048576245  0.000000
1.209  0.000000  0.000000  0.000000  -27.251145687641976  7.017497106366898  14.796107179970006  56.53940171010081  11.231767639109608  0.9717263403148654  53.64761231387193  59.912070145342014  -43.5225747566458  24.452881230162678  0.000000
1.248  0.000000  0.000000  0.000000  -27.54606756133992  7.528578191502032  15.722645595793315  56.49622905118784  11.262419255332556  1.1808813550056256  53.49929356045007  60.788480975566756  -44.095857279035016  24.377085626365208  0.000000
1.287  0.000000  0.000000  0.000000  -27.866488739593752  8.042416939282617  16.688376653598585  56.438500722132254  11.28533952727145  1.403770519848383  53.36330850235645  61.52688060517574  -44.627172281771294  24.259840426944933  0.000000
1.326  0.000000  0.000000  0.000000  -28.18577192995456  8.556811151603904  17.684427513556063  56.37081945765798  11.307617685377986  1.6489499427064975  53.22075508384239  62.13849272637437  -45.065724565057444  24.082505762221206  0.000000
1.365  0.000000  0.000000  0.000000  -28.481992807445064  9.062833576423674  18.693238855724328  56.297669733293326  11.332139096802644  1.920226215952657  53.05609111247818  62.63989670358984  -45.37199628351339  23.83569446855126  0.000000
1.404  0.000000  0.000000  0.000000  -28.747824208384447  9.544207420939609  19.687407557038014  56.22318342209553  11.355230641258354  2.2096821580891666  52.86771922949715  63.05284085589615  -45.54541611848088  23.53504632620371  0.000000
1.443  0.000000  0.000000  0.000000  -28.98961011570284  9.978953818495237  20.63368972325349  56.15295486017199  11.368139505513167  2.497227216283201  52.66741489292842  63.40015182237379  -45.622204853473164  23.220545345469198  0.000000
1.482  0.000000  0.000000  0.000000  -29.216193366587053  10.346386856363877  21.4982410518737  56.09407205800265  11.363853913108118  2.7565111862705867  52.47379070731648  63.69999491795879  -45.65439205831271  22.93648349604282  0.000000
1.521  0.000000  0.000000  0.000000  -29.42859171779444  10.63709491009982  22.25458669365378  56.052086604738705  11.341702181485854  2.970196763606279  52.30474174182746  63.9581711341444  -45.68028149212001  22.705636863031316  0.000000
